HIERARCHY
ROOT Hips
{
	OFFSET 0.000000 0.000000 0.000000
	CHANNELS 6 Xposition Yposition Zposition Xrotation Yrotation Zrotation
	JOINT LeftUpLeg_virtual
	{
		OFFSET 0.000000 0.000000 0.000000
		CHANNELS 3 Xrotation Yrotation Zrotation
		JOINT LeftUpLeg
		{
			OFFSET 11.394100 -6.187798 -0.413800
			CHANNELS 3 Xrotation Yrotation Zrotation
			JOINT LeftLeg
			{
				OFFSET 0.430247 -32.302673 3.732800
				CHANNELS 3 Xrotation Yrotation Zrotation
				JOINT LeftFoot
				{
					OFFSET -0.430247 -48.264931 -6.423300
					CHANNELS 3 Xrotation Yrotation Zrotation
					JOINT LeftToeBase
					{
						OFFSET 4.230900 -16.068199 23.438400
						CHANNELS 3 Xrotation Yrotation Zrotation
						JOINT LeftToe_End
						{
							OFFSET 4.510700 0.695400 19.974600
							CHANNELS 3 Xrotation Yrotation Zrotation
							End Site
							{
								OFFSET 0 0 0
							}
						}
					}
				}
			}
		}
	}
	JOINT RightUpLeg_virtual
	{
		OFFSET 0.000000 0.000000 0.000000
		CHANNELS 3 Xrotation Yrotation Zrotation
		JOINT RightUpLeg
		{
			OFFSET -11.333700 -6.187798 -0.413800
			CHANNELS 3 Xrotation Yrotation Zrotation
			JOINT RightLeg
			{
				OFFSET -0.430392 -32.302628 3.733000
				CHANNELS 3 Xrotation Yrotation Zrotation
				JOINT RightFoot
				{
					OFFSET 0.430392 -48.264973 -6.423500
					CHANNELS 3 Xrotation Yrotation Zrotation
					JOINT RightToeBase
					{
						OFFSET -4.230900 -16.068199 23.438400
						CHANNELS 3 Xrotation Yrotation Zrotation
						JOINT RightToe_End
						{
							OFFSET -4.510700 0.695400 19.974600
							CHANNELS 3 Xrotation Yrotation Zrotation
							End Site
							{
								OFFSET 0 0 0
							}
						}
					}
				}
			}
		}
	}
	JOINT Spine_virtual
	{
		OFFSET 0.000000 0.000000 0.000000
		CHANNELS 3 Xrotation Yrotation Zrotation
		JOINT Spine
		{
			OFFSET -0.002400 12.777504 0.315300
			CHANNELS 3 Xrotation Yrotation Zrotation
			JOINT Spine1
			{
				OFFSET -0.002067 5.816869 0.032633
				CHANNELS 3 Xrotation Yrotation Zrotation
				JOINT Spine1_split
				{
					OFFSET -0.002067 5.816869 0.032633
					CHANNELS 3 Xrotation Yrotation Zrotation
					JOINT Spine2
					{
						OFFSET -0.002067 5.816869 0.032633
						CHANNELS 3 Xrotation Yrotation Zrotation
						JOINT Neck_virtual
						{
							OFFSET 0.000000 0.000000 0.000000
							CHANNELS 3 Xrotation Yrotation Zrotation
							JOINT Neck
							{
								OFFSET -0.003700 21.199493 -0.826900
								CHANNELS 3 Xrotation Yrotation Zrotation
								JOINT Head
								{
									OFFSET 0.000000 20.442200 4.834800
									CHANNELS 3 Xrotation Yrotation Zrotation
									JOINT HeadTop_End
									{
										OFFSET 0.000000 34.668396 4.968400
										CHANNELS 3 Xrotation Yrotation Zrotation
										End Site
										{
											OFFSET 0 0 0
										}
									}
								}
							}
						}
						JOINT LeftShoulder_virtual
						{
							OFFSET 0.000000 0.000000 0.000000
							CHANNELS 3 Xrotation Yrotation Zrotation
							JOINT LeftShoulder
							{
								OFFSET 3.288150 8.794197 -1.372250
								CHANNELS 3 Xrotation Yrotation Zrotation
								JOINT LeftShoulder_split
								{
									OFFSET 3.288150 8.794197 -1.372250
									CHANNELS 3 Xrotation Yrotation Zrotation
									JOINT LeftArm
									{
										OFFSET 11.953299 -2.279007 -0.146200
										CHANNELS 3 Xrotation Yrotation Zrotation
										JOINT LeftForeArm
										{
											OFFSET 18.448900 0.000000 0.000000
											CHANNELS 3 Xrotation Yrotation Zrotation
											JOINT LeftHand
											{
												OFFSET 29.527798 0.000000 0.000000
												CHANNELS 3 Xrotation Yrotation Zrotation
												End Site
												{
													OFFSET 0 0 0
												}
											}
										}
									}
								}
							}
						}
						JOINT RightShoulder_virtual
						{
							OFFSET 0.000000 0.000000 0.000000
							CHANNELS 3 Xrotation Yrotation Zrotation
							JOINT RightShoulder
							{
								OFFSET -3.249400 8.794197 -1.372250
								CHANNELS 3 Xrotation Yrotation Zrotation
								JOINT RightShoulder_split
								{
									OFFSET -3.249400 8.794197 -1.372250
									CHANNELS 3 Xrotation Yrotation Zrotation
									JOINT RightArm
									{
										OFFSET -11.953299 -2.279007 -0.146200
										CHANNELS 3 Xrotation Yrotation Zrotation
										JOINT RightForeArm
										{
											OFFSET -18.448900 0.000000 0.000000
											CHANNELS 3 Xrotation Yrotation Zrotation
											JOINT RightHand
											{
												OFFSET -29.527802 0.000000 0.000000
												CHANNELS 3 Xrotation Yrotation Zrotation
												End Site
												{
													OFFSET 0 0 0
												}
											}
										}
									}
								}
							}
						}
					}
				}
			}
		}
	}
}
MOTION
Frames: 6
Frame Time: 0.03333333
-3.093792 96.888084 14.049248 0.000000 0.000000 0.000000 175.454063 -62.286428 176.917705 -9.542248 13.908665 15.035435 22.808780 18.553896 1.890270 -7.847827 2.804321 -23.039459 -5.788912 1.759238 -0.327930 0.000000 0.000000 0.000000 175.110901 -61.114026 176.253510 -23.399630 -17.950839 -16.197823 18.438692 -13.598248 -0.442765 6.430136 0.366615 8.396352 -0.838407 -8.895408 6.421733 0.000000 0.000000 0.000000 174.491239 -64.879332 174.567518 9.865365 -0.511830 -0.052208 -0.123819 -1.194406 2.059211 0.874852 -0.950272 0.051144 0.000000 0.000000 0.000000 -2.210509 -1.158905 2.496856 -4.291894 21.951420 4.386318 2.269995 23.637051 -7.956792 0.000000 0.000000 0.000000 -2.166649 -0.685808 2.120505 0.912278 1.900872 -8.062975 1.879874 -3.549888 -1.674240 -1.030980 -7.322910 -58.937675 4.891423 -16.248487 -6.100839 0.000000 0.000000 0.000000 -1.772563 -1.101897 1.732082 1.823157 -2.180935 18.933344 -2.961567 -1.634771 -0.516586 16.418337 27.999444 45.304600 16.305205 26.288298 -6.129602 0.000000 0.000000 0.000000 
-2.929768 96.468643 11.381252 0.000000 0.000000 0.000000 176.118327 -58.804985 177.651253 -8.189707 14.829727 16.574233 24.112350 20.773684 1.792360 -5.849759 3.322176 -24.684712 -6.314152 2.036760 -0.283954 0.000000 0.000000 0.000000 175.805955 -57.611068 176.989176 -24.652982 -18.444175 -14.779688 19.520546 -12.848210 -0.294675 7.023472 1.373225 7.388119 -1.705482 -9.006177 6.326738 0.000000 0.000000 0.000000 175.701767 -61.023683 175.883341 10.001781 -1.033981 -0.189123 -0.032790 -1.555780 2.606081 0.957369 -0.607753 -0.050741 0.000000 0.000000 0.000000 -2.233812 -1.516432 2.993994 -4.405987 19.359314 3.179847 1.622243 19.761035 -6.175166 0.000000 0.000000 0.000000 -2.036873 -1.030363 2.659559 0.971242 2.425796 -8.965270 1.589278 -3.629838 -1.482905 0.243853 -7.986818 -59.236209 4.199309 -16.260387 -6.029040 0.000000 0.000000 0.000000 -1.616446 -1.418182 2.243476 1.832818 -2.461017 18.320352 -2.799553 -1.475450 -0.453338 15.589704 28.993781 45.551522 16.006914 26.111685 -6.365410 0.000000 0.000000 0.000000 
-2.686154 95.928329 8.483921 0.000000 0.000000 0.000000 176.804228 -55.289166 178.261367 -7.775677 15.196705 18.618102 27.338722 22.616664 1.500253 -3.258437 3.404443 -25.354846 -5.983498 2.538922 -1.376821 0.000000 0.000000 0.000000 176.562152 -54.212554 177.597022 -25.279951 -18.865503 -12.766409 20.675077 -11.605535 -0.291215 6.478242 2.242215 6.147334 -2.350367 -9.054828 5.818817 0.000000 0.000000 0.000000 176.872516 -57.157260 176.972879 10.295519 -1.613316 -0.288482 0.001716 -1.909805 3.043832 0.955249 -0.186903 -0.240113 0.000000 0.000000 0.000000 -2.286924 -1.884030 3.372330 -4.391377 16.413462 2.272777 1.112888 15.687339 -4.579210 0.000000 0.000000 0.000000 -1.947304 -1.384298 3.089113 1.041788 2.849054 -9.609368 1.419464 -3.723785 -1.184909 1.824736 -8.620390 -59.633521 3.607133 -16.632653 -6.048546 0.000000 0.000000 0.000000 -1.531859 -1.738577 2.665440 1.862545 -2.624763 17.908162 -2.805715 -1.243751 -0.390109 14.859691 29.922861 45.746811 15.589003 26.006990 -6.325177 0.000000 0.000000 0.000000 
-2.399904 95.337891 5.396805 0.000000 0.000000 0.000000 177.485457 -51.821946 178.770940 -8.738899 14.581173 21.043893 32.433044 23.557328 1.125375 -0.028441 2.798307 -25.343808 -4.503302 3.202102 -3.781107 0.000000 0.000000 0.000000 177.404670 -50.943191 178.167916 -25.177962 -19.163747 -10.314754 21.845523 -10.112738 -0.451780 4.595911 2.770069 4.541474 -2.305508 -9.019396 4.915770 0.000000 0.000000 0.000000 177.936523 -53.359220 177.819249 10.707262 -2.136720 -0.333338 -0.079251 -2.186375 3.243198 0.889052 0.346426 -0.289598 0.000000 0.000000 0.000000 -2.357051 -2.175993 3.499645 -4.200571 13.237603 1.783821 0.742056 11.604557 -3.268032 0.000000 0.000000 0.000000 -1.937643 -1.668357 3.286556 1.097675 3.155828 -9.879263 1.279763 -3.688423 -0.890911 3.459293 -8.940059 -60.083774 3.111545 -17.309484 -6.194433 0.000000 0.000000 0.000000 -1.537305 -1.999718 2.866147 1.880611 -2.672210 17.733434 -2.815653 -1.026196 -0.328017 14.235059 30.635068 45.866568 15.155228 26.019612 -6.100988 0.000000 0.000000 0.000000 
-2.113728 94.810242 2.206379 0.000000 0.000000 0.000000 178.244564 -48.405411 179.284898 -10.923537 12.852406 23.300654 38.562821 23.500693 0.857889 3.931529 1.456148 -24.729241 -2.804288 3.873563 -7.031031 0.000000 0.000000 0.000000 178.272759 -47.650378 178.713785 -24.552404 -19.195719 -7.642354 23.179307 -8.474176 -0.717936 1.864045 2.972051 2.831242 -1.887623 -8.927920 3.632953 0.000000 0.000000 0.000000 178.865934 -49.682017 178.379024 11.196049 -2.506532 -0.292023 -0.292781 -2.353553 3.153649 0.771299 0.755278 -0.262567 0.000000 0.000000 0.000000 -2.447757 -2.333517 3.341622 -3.806401 10.003912 1.745801 0.489269 7.731538 -2.300644 0.000000 0.000000 0.000000 -1.997255 -1.827683 3.204165 1.134148 3.321240 -9.798115 1.081118 -3.448489 -0.665413 4.875284 -8.712773 -60.611727 2.743478 -18.097440 -6.492804 0.000000 0.000000 0.000000 -1.627673 -2.145117 2.789153 1.846807 -2.667352 17.734996 -2.716471 -0.820744 -0.334348 13.698253 31.115726 45.868648 14.793211 26.203254 -5.831189 0.000000 0.000000 0.000000 
-1.936326 94.484520 -0.988197 0.000000 0.000000 0.000000 179.018630 -44.995353 179.688535 -13.592996 10.431897 24.646912 44.325469 22.949326 0.872401 7.570507 -0.123968 -22.897366 -2.395518 4.457983 -10.223151 0.000000 0.000000 0.000000 179.078899 -44.418605 179.111930 -23.587479 -18.798480 -4.926003 24.638801 -6.739241 -1.046523 -1.022459 2.925035 1.401447 -1.559863 -8.828937 2.113794 0.000000 0.000000 0.000000 179.638019 -46.123984 178.733524 11.716769 -2.630034 -0.144865 -0.578013 -2.377648 2.812486 0.655755 0.960309 -0.196048 0.000000 0.000000 0.000000 -2.557571 -2.324460 2.933206 -3.180867 6.817173 2.088904 0.351260 4.170200 -1.709530 0.000000 0.000000 0.000000 -2.101486 -1.825990 2.865935 1.150538 3.321953 -9.494672 0.891486 -2.998122 -0.541646 6.048869 -7.824682 -61.214805 2.557370 -18.625016 -6.915941 0.000000 0.000000 0.000000 -1.762309 -2.134623 2.464259 1.765491 -2.687786 17.844189 -2.456186 -0.685487 -0.468820 13.278236 31.557987 45.608633 14.546269 26.422324 -5.582425 0.000000 0.000000 0.000000 
